<svg xmlns="http://www.w3.org/2000/svg" width="101" height="24" viewBox="0 0 101 24">
    <g fill="none" fill-rule="evenodd">
        <g fill-rule="nonzero">
            <g>
                <g>
                    <g>
                        <path fill="#023365" d="M54 7.92v5.784c0 1.489-.52 2.748-1.531 3.722-.983.945-2.138 1.431-3.497 1.431-1.474 0-2.745-.487-3.756-1.489-1.01-.973-1.502-2.175-1.502-3.608V7.604c0-.516.144-.888.433-1.174.272-.28.649-.435 1.04-.43.378-.007.743.137 1.012.401.288.315.432.716.433 1.203v6.185c0 .658.202 1.202.636 1.632.434.435 1.03.673 1.646.659.546-.004 1.071-.208 1.474-.573.462-.459.693-1.031.693-1.776V7.604c0-.516.145-.888.404-1.174.273-.28.65-.435 1.04-.43.579 0 1.012.23 1.272.716.145.232.203.632.203 1.203zM62.13 6c1.167 0 2.13.255 2.947.738.73.482 1.109.993 1.109 1.561 0 .455-.117.823-.38 1.079-.242.247-.582.381-.934.369-.246-.013-.48-.103-.67-.255-.234-.17-.467-.34-.672-.511-.525-.397-1.021-.596-1.459-.596-.438 0-.788.114-1.051.34-.262.184-.415.48-.408.795 0 .567.525.965 1.575 1.22 1.635.398 2.773.852 3.444 1.39.817.625 1.226 1.533 1.226 2.697 0 1.163-.437 2.128-1.285 2.895-.847.767-1.955 1.135-3.268 1.135-1.401 0-2.57-.312-3.533-.965-.876-.596-1.342-1.277-1.342-2.043 0-.37.116-.71.408-.965.24-.274.593-.43.964-.426.467 0 .963.256 1.547.738.729.625 1.4.965 1.984.965.418.013.825-.13 1.138-.397.292-.255.438-.596.438-1.022 0-.454-.262-.794-.788-1.022-.175-.085-.817-.312-1.984-.624-1.168-.34-1.985-.71-2.481-1.136-.613-.51-.904-1.249-.904-2.186 0-1.106.407-2.014 1.225-2.696C59.766 6.34 60.816 6 62.13 6zM73.145 7.611v3.364h4.568V7.61c0-.518.14-.891.42-1.18.272-.285.648-.441 1.037-.43.42 0 .757.143 1.009.43.28.289.392.691.392 1.18v9.635c0 .517-.14.891-.42 1.178-.266.277-.63.432-1.009.432-.379 0-.742-.155-1.009-.432-.28-.286-.42-.689-.42-1.207v-3.594h-4.568v3.595c0 .517-.14.892-.42 1.207-.267.277-.63.432-1.01.432-.378 0-.742-.155-1.008-.432-.281-.287-.421-.69-.421-1.178V7.61c0-.518.14-.891.42-1.18.264-.28.63-.436 1.01-.43.366-.008.72.137.98.402.308.29.449.692.449 1.208zM92.994 8.765l-3.528 3.507 4.035 3.79c.532.514.784.97.784 1.37.01.378-.143.743-.42.997-.274.259-.634.402-1.008.399-.393 0-.813-.228-1.29-.685l-4.71-4.503v3.592c0 .513-.139.884-.42 1.198-.266.273-.63.427-1.008.427-.379 0-.742-.154-1.009-.427-.28-.286-.42-.685-.42-1.198V7.653c0-.512.14-.911.42-1.196.264-.279.63-.434 1.01-.428.366-.008.72.136.98.399.28.313.42.713.42 1.225v3.308l4.119-4.22c.476-.484.925-.74 1.316-.74.367-.008.721.136.982.398.264.26.407.624.391.998.085.427-.168.884-.644 1.368zM97.714 17.246V7.611c0-.518.128-.892.382-1.18.24-.28.572-.436.917-.43.333-.008.654.137.891.402.254.316.382.72.382 1.208v9.635c0 .518-.128.892-.382 1.18-.242.276-.572.431-.917.431-.344 0-.674-.155-.916-.432-.23-.287-.357-.687-.357-1.179zM29.571 18.857c-.708-.004-1.282-.668-1.285-1.489V7.524c-.01-.54.232-1.045.634-1.319.402-.273.9-.273 1.303 0 .402.274.645.779.634 1.32v9.872c-.003.392-.14.766-.381 1.04s-.567.425-.905.42z" transform="translate(-308 -1180) translate(308 1156) translate(0 24)"/>
                        <path fill="#00E6B2" d="M43.104 23.143c-.371-.003-.727-.149-.998-.408l-9.946-9.81c-.572-.555-.597-1.478-.056-2.065l4.901-5.24c.355-.392.889-.56 1.398-.438.509.122.915.514 1.062 1.026.147.512.013 1.066-.351 1.45l-3.904 4.164 8.92 8.792c.277.273.436.648.441 1.042.006.393-.143.772-.413 1.053-.28.284-.66.44-1.054.434zM21.537 4.714l-9.125 9.473c-.488.517-1.32.517-1.837.029L5.898 9.769c-.532-.5-.56-1.336-.06-1.868.499-.533 1.335-.56 1.867-.061l3.731 3.558 8.29-8.58C14.85-1.285 7.617-.86 3.254 3.784c-4.363 4.644-4.335 11.89.064 16.5 4.4 4.61 11.635 4.978 16.479.838 4.844-4.141 5.607-11.346 1.737-16.41l.003.002zm-5.51 12.915h-8.78c-.73 0-1.32-.59-1.32-1.32 0-.729.59-1.32 1.32-1.32h8.78c.726.009 1.312.595 1.32 1.32.006.352-.131.691-.38.94s-.588.386-.94.38z" transform="translate(-308 -1180) translate(308 1156) translate(0 24)"/>
                    </g>
                </g>
            </g>
        </g>
    </g>
</svg>
